<?xml version="1.0" standalone="no"?>
<!DOCTYPE svg PUBLIC "-//W3C//DTD SVG 20010904//EN"
 "http://www.w3.org/TR/2001/REC-SVG-20010904/DTD/svg10.dtd">
<svg version="1.0" xmlns="http://www.w3.org/2000/svg"
 width="699.000000pt" height="699.000000pt" viewBox="0 0 699.000000 699.000000"
 preserveAspectRatio="xMidYMid meet">
<metadata>
Created by potrace 1.14, written by Peter Selinger 2001-2017
</metadata>
<g transform="translate(0.000000,699.000000) scale(0.100000,-0.100000)"
fill="#000000" stroke="none">
<path d="M3314 6440 c-28 -4 -78 -10 -110 -14 -68 -7 -183 -26 -259 -43 -16
-4 -34 -8 -40 -9 -155 -32 -563 -174 -606 -211 -8 -7 -21 -13 -28 -13 -7 0
-38 -14 -69 -31 -31 -18 -86 -48 -122 -67 -36 -20 -66 -40 -68 -44 -2 -4 -8
-8 -14 -8 -15 0 -156 -95 -269 -182 -485 -370 -846 -876 -1042 -1460 -35 -104
-80 -268 -92 -338 -3 -19 -10 -53 -15 -75 -5 -22 -12 -62 -16 -90 -3 -27 -7
-52 -9 -55 -26 -44 -26 -728 0 -830 2 -8 7 -33 10 -55 3 -23 7 -52 10 -65 3
-14 10 -51 15 -82 34 -186 135 -488 229 -688 31 -66 37 -77 96 -187 67 -123
226 -362 247 -371 5 -2 8 -10 8 -18 0 -8 4 -14 8 -14 5 0 20 -15 33 -34 75
-106 348 -379 454 -454 19 -14 35 -29 35 -34 0 -4 6 -8 14 -8 8 0 16 -3 18 -7
4 -10 85 -73 93 -73 4 0 13 -6 21 -14 11 -11 139 -91 284 -176 8 -5 56 -29
105 -53 80 -39 111 -54 190 -88 60 -25 214 -81 263 -95 389 -108 580 -134 942
-129 135 1 261 5 280 8 19 3 59 8 89 12 30 4 61 8 70 10 9 1 36 6 61 10 75 12
320 72 400 99 96 32 160 54 185 65 11 5 45 19 75 31 71 29 287 137 321 161 14
10 29 16 33 12 3 -3 6 -1 6 5 0 7 5 12 11 12 18 0 252 159 349 238 221 178
464 437 593 632 20 30 41 60 45 65 45 57 262 454 262 480 0 4 11 30 24 58 26
59 61 162 55 163 -2 0 1 7 7 15 10 12 35 89 50 149 2 8 11 42 20 75 9 33 17
65 19 70 3 15 17 87 21 110 2 11 8 43 13 70 6 28 13 75 17 105 3 30 10 87 14
125 5 39 7 185 5 325 -2 201 -7 285 -25 395 -52 335 -145 633 -285 916 -51
102 -143 269 -154 279 -4 3 -12 17 -20 33 -8 15 -18 27 -23 27 -4 0 -8 5 -8
10 0 11 -123 186 -144 205 -6 6 -29 33 -51 60 -123 155 -376 392 -540 505 -27
19 -52 38 -55 41 -5 5 -76 52 -115 76 -11 7 -50 30 -88 53 -297 181 -723 332
-1077 384 -58 9 -123 18 -145 22 -58 9 -551 12 -611 4z"/>
</g>
</svg>
